<svg xmlns="http://www.w3.org/2000/svg" width="32" height="32" viewBox="0 0 32 32"><path fill="#b0b8bc" d="M16 2.33c.56.29 1.61.84 1.87.95h.05a26 26 0 0 0 8.32 2.06v15.19c0 5.69-8.74 8.8-10.24 9.29-1.51-.49-10.24-3.6-10.24-9.29v-15a30.82 30.82 0 0 0 8.33-2.23H14.24L16 2.33m0-2.25l-2.67 1.37A25.63 25.63 0 0 1 5 3.6H3.76v16.93c0 7.67 11.4 11.13 11.89 11.28l.35.1.35-.1c.48-.15 11.89-3.61 11.89-11.28V3.28l-1.31.08h-.22a22.53 22.53 0 0 1-8-1.92c-.17-.08-1.23-.62-2.1-1.08L16 .08z M15.24 20.63l-5.28-5.29 1.58-1.58 3.7 3.69 7.06-7.06 1.58 1.59-8.64 8.65z" /></svg>
